<svg width="143" height="28" viewBox="0 0 143 28" fill="none" xmlns="http://www.w3.org/2000/svg">
<path d="M27.6449 0.0547007C27.691 0.000256886 27.7742 -0.0152382 27.8387 0.0158726C27.9032 0.0392325 27.949 0.109416 27.949 0.179388V7.34235C27.949 7.41232 27.9124 7.47474 27.848 7.50587L14.3203 14L27.848 20.4947C27.9123 20.5258 27.9489 20.5878 27.949 20.6577V27.8212C27.949 27.8912 27.9032 27.9536 27.8387 27.9847C27.8203 28.0002 27.8018 28 27.7743 28C27.7282 28 27.6449 27.9453 27.6449 27.9453L13.9791 14.327L0.31334 27.9453C0.276536 27.9841 0.230516 28 0.18451 28C0.16608 28 0.13798 27.9925 0.11955 27.9847C0.0551341 27.9613 0.00930054 27.8911 0.00928011 27.8212V20.6577C0.00935445 20.5877 0.0463754 20.5258 0.110815 20.4947L13.6292 14L0.101535 7.50587C0.0370301 7.47476 0 7.41235 0 7.34235V0.179388C0 0.109466 0.0551363 0.039283 0.11955 0.0158726C0.184047 -0.0152344 0.258052 0.000273016 0.31334 0.0547007L13.9791 13.6735L27.6449 0.0547007Z" fill="black"/>
<path fill-rule="evenodd" clip-rule="evenodd" d="M74.2234 8.9622C74.9202 8.96222 75.6169 9.04525 76.3136 9.21102C77.0104 9.36809 77.6505 9.63866 78.2341 10.0226C78.8177 10.4065 79.2837 10.9212 79.6321 11.567C79.9805 12.2127 80.1551 13.0199 80.1551 13.9885V23.7792H76.8492V21.7634H76.7449C76.5359 22.1648 76.2394 22.5443 75.8562 22.902C75.4817 23.251 75.0112 23.5348 74.4451 23.753C73.8877 23.9711 73.2255 24.08 72.4591 24.08C71.5272 24.08 70.6911 23.9139 69.9508 23.5823C69.2105 23.242 68.6269 22.7449 68.2001 22.0905C67.7733 21.436 67.5598 20.6288 67.5598 19.6689C67.5598 18.8487 67.7124 18.1679 68.0172 17.6269C68.3221 17.086 68.736 16.6542 69.2586 16.3313C69.7899 16.0085 70.3866 15.7643 71.0485 15.5985C71.7104 15.424 72.394 15.3014 73.0995 15.2316C73.9618 15.1356 74.6589 15.0531 75.1902 14.9833C75.7215 14.9135 76.1047 14.7996 76.3399 14.6426C76.5836 14.4855 76.7056 14.2413 76.7056 13.9098V13.8441C76.7056 13.1375 76.4964 12.5879 76.0784 12.1953C75.6603 11.8027 75.0504 11.6063 74.2491 11.6063C73.4044 11.6064 72.7339 11.7895 72.2375 12.1559C71.7498 12.5224 71.4188 12.9542 71.2445 13.4515L68.0434 12.9938C68.296 12.1038 68.7138 11.3619 69.2973 10.7685C69.8809 10.1664 70.5912 9.71716 71.4274 9.42048C72.2723 9.11509 73.2044 8.9622 74.2234 8.9622ZM76.7318 16.8153C76.6186 16.9026 76.4357 16.9856 76.1832 17.0641C75.9306 17.134 75.643 17.1994 75.3207 17.2605C74.9984 17.3215 74.6805 17.3738 74.367 17.4174C74.0622 17.4611 73.7965 17.4963 73.57 17.5224C73.0562 17.5922 72.5944 17.7099 72.1851 17.8757C71.7844 18.0328 71.4666 18.2511 71.2314 18.5303C70.9963 18.8095 70.8783 19.1715 70.8782 19.6164C70.8782 20.2534 71.1093 20.7335 71.571 21.0563C72.0326 21.3792 72.6205 21.5409 73.3347 21.5409C74.0315 21.5409 74.6326 21.4056 75.1378 21.1351C75.643 20.8559 76.0349 20.4891 76.3136 20.0353C76.5923 19.5729 76.7318 19.0713 76.7318 18.5303V16.8153Z" fill="black"/>
<path fill-rule="evenodd" clip-rule="evenodd" d="M97.6628 8.9622C99.0912 8.96222 100.328 9.27624 101.373 9.90446C102.418 10.5327 103.229 11.4186 103.804 12.5617C104.378 13.6961 104.666 15.0181 104.666 16.5277C104.666 18.0285 104.378 19.3461 103.804 20.4805C103.229 21.6149 102.418 22.4963 101.373 23.1246C100.328 23.7528 99.0912 24.0669 97.6628 24.0669C96.2343 24.0669 94.9971 23.7529 93.9519 23.1246C92.9067 22.4964 92.097 21.6148 91.5221 20.4805C90.956 19.3461 90.6727 18.0285 90.6727 16.5277C90.6727 15.0181 90.9559 13.6961 91.5221 12.5617C92.097 11.4187 92.9067 10.5327 93.9519 9.90446C94.9971 9.27619 96.2343 8.9622 97.6628 8.9622ZM97.6628 11.737C96.8876 11.737 96.2388 11.951 95.7162 12.3785C95.1936 12.7974 94.8011 13.3687 94.5398 14.093C94.2872 14.8172 94.1609 15.6289 94.1609 16.5277C94.1609 17.409 94.2872 18.2119 94.5398 18.9361C94.8011 19.6604 95.1936 20.2361 95.7162 20.6637C96.2388 21.0825 96.8877 21.292 97.6628 21.292C98.4554 21.292 99.1087 21.0825 99.6226 20.6637C100.136 20.2361 100.52 19.6603 100.772 18.9361C101.034 18.2119 101.164 17.409 101.164 16.5277C101.164 15.6289 101.034 14.8172 100.772 14.093C100.52 13.3688 100.136 12.7973 99.6226 12.3785C99.1087 11.951 98.4554 11.7371 97.6628 11.737Z" fill="black"/>
<path d="M121.912 8.9622C123.106 8.96221 124.16 9.18052 125.074 9.61681C125.989 10.0531 126.716 10.668 127.256 11.462C127.805 12.2472 128.118 13.1679 128.197 14.2237H124.904C124.817 13.7526 124.647 13.3295 124.394 12.9544C124.142 12.5792 123.811 12.2822 123.401 12.0641C123.001 11.846 122.522 11.737 121.964 11.737C121.259 11.7371 120.64 11.929 120.109 12.3129C119.587 12.6881 119.177 13.2292 118.881 13.936C118.585 14.6428 118.437 15.4892 118.437 16.4752C118.437 17.4699 118.58 18.3294 118.868 19.0537C119.155 19.7692 119.565 20.3235 120.096 20.7162C120.627 21.1 121.25 21.292 121.964 21.292C122.722 21.292 123.363 21.0693 123.885 20.6243C124.416 20.1793 124.756 19.5643 124.904 18.7791H128.197C128.118 19.8175 127.813 20.7337 127.282 21.5277C126.751 22.3217 126.032 22.9454 125.126 23.3991C124.221 23.8441 123.158 24.0669 121.939 24.0669C120.484 24.0669 119.233 23.7485 118.188 23.1115C117.143 22.4658 116.342 21.5754 115.785 20.4411C115.227 19.3067 114.948 18.0023 114.948 16.5277C114.948 15.0356 115.231 13.7223 115.797 12.588C116.363 11.4536 117.169 10.5677 118.214 9.93071C119.26 9.28499 120.493 8.9622 121.912 8.9622Z" fill="black"/>
<path fill-rule="evenodd" clip-rule="evenodd" d="M136.297 8.9622C137.194 8.9622 138.044 9.10627 138.845 9.39423C139.655 9.68219 140.369 10.1271 140.988 10.7291C141.615 11.3312 142.107 12.0991 142.464 13.0326C142.821 13.9575 143 15.0617 143 16.3445V17.4174H132.84C132.868 18.1964 133.018 18.8726 133.292 19.4463C133.606 20.0746 134.041 20.5547 134.599 20.8863C135.165 21.2178 135.823 21.3839 136.572 21.3839C137.059 21.3839 137.504 21.314 137.904 21.1745C138.313 21.0349 138.662 20.8253 138.949 20.5461C139.246 20.2581 139.472 19.9046 139.629 19.4857L142.843 19.8652C142.634 20.7117 142.246 21.4535 141.68 22.0905C141.123 22.7187 140.404 23.2076 139.524 23.5566C138.653 23.8969 137.651 24.0669 136.519 24.0669C135.056 24.0669 133.793 23.7617 132.73 23.1509C131.668 22.5313 130.849 21.6585 130.274 20.533C129.708 19.4073 129.425 18.0809 129.425 16.5539C129.425 15.0443 129.708 13.7223 130.274 12.588C130.84 11.4449 131.637 10.5546 132.665 9.91759C133.693 9.28068 134.904 8.96223 136.297 8.9622ZM136.323 11.6452C135.583 11.6452 134.952 11.8201 134.429 12.1691C133.906 12.5181 133.51 12.9894 133.24 13.5827C133.027 14.0451 132.899 14.5512 132.854 15.1009H139.649C139.598 14.552 139.483 14.0587 139.302 13.6216C139.05 13.0022 138.675 12.5181 138.179 12.1691C137.682 11.82 137.064 11.6452 136.323 11.6452Z" fill="black"/>
<path d="M51.8027 7.23462H42.6569V12.4699H51.1236V15.3891H42.6569V20.8206H51.8551V23.7792H39.1293V4.27603H51.8027V7.23462Z" fill="black"/>
<path d="M59.9948 14.5644L62.9869 9.1454H66.6323L62.2423 16.4752L66.7104 23.7792H63.0917L59.9948 18.5172L56.9504 23.7792H53.3055L57.7343 16.4752L53.4098 9.1454H57.0552L59.9948 14.5644Z" fill="black"/>
<path d="M88.2162 3.92001C88.8172 3.92001 89.3486 3.96787 89.8102 4.06384C90.2806 4.15983 90.6247 4.24726 90.8425 4.32579L90.1372 6.99618C89.9978 6.94383 89.8189 6.89544 89.6011 6.85181C89.3834 6.79948 89.1352 6.77361 88.8565 6.7736C88.2208 6.7736 87.7635 6.93042 87.4847 7.24446C87.2147 7.5586 87.0797 8.00402 87.0797 8.57993V9.1454H90.1241V11.8158H87.0797V23.7792H83.6564V11.8158H81.5138V9.1454H83.6564V8.3311C83.6564 7.34507 83.8611 6.52462 84.2705 5.87017C84.6799 5.21576 85.2288 4.72739 85.9169 4.40454C86.6137 4.0817 87.3801 3.92002 88.2162 3.92001Z" fill="black"/>
<path d="M113.655 8.94907C113.838 8.94907 114.047 8.95787 114.282 8.97532C114.526 8.99277 114.726 9.01423 114.883 9.0404V12.2084C114.735 12.1561 114.504 12.1121 114.191 12.0772C113.877 12.0423 113.576 12.0252 113.289 12.0252C112.653 12.0253 112.087 12.1601 111.591 12.4305C111.094 12.701 110.702 13.0722 110.415 13.5434C110.136 14.0146 109.997 14.5645 109.997 15.1927V23.7792H106.56V9.1454H109.892V11.6063H110.049C110.31 10.7512 110.767 10.0963 111.42 9.64251C112.074 9.18006 112.819 8.9491 113.655 8.94907Z" fill="black"/>
<path d="M0.211805 11.947L9.27957 13.8212C9.36244 13.8445 9.4176 13.9145 9.41768 14C9.41768 14.0855 9.36246 14.1632 9.27957 14.1788L0.211805 16.0535H0.17523C0.13837 16.0535 0.09206 16.038 0.0644149 16.0147C0.0275794 15.9836 2.51467e-05 15.9291 0 15.8747V12.1259C0 12.0715 0.0276042 12.017 0.0644149 11.9859C0.101249 11.947 0.156554 11.9393 0.211805 11.947Z" fill="black"/>
<path d="M27.7377 11.947C27.793 11.9393 27.8483 11.9548 27.8851 11.9859C27.9219 12.0247 27.9495 12.0715 27.9495 12.1259V15.8747C27.9495 15.9291 27.9219 15.9836 27.8851 16.0147C27.8575 16.038 27.8111 16.0535 27.7743 16.0535H27.7377L18.67 14.1794C18.587 14.156 18.5318 14.0856 18.5318 14C18.5319 13.9145 18.5871 13.8367 18.67 13.8212L27.7377 11.947Z" fill="black"/>
</svg>
