<svg width="96" height="96" viewBox="0 0 96 96" fill="none" xmlns="http://www.w3.org/2000/svg">
<path fill-rule="evenodd" clip-rule="evenodd" d="M52.4012 26.8785C48.9273 23.2968 44.3087 21.324 39.3957 21.324C34.4829 21.324 29.864 23.2966 26.39 26.8785C19.219 34.2725 19.219 46.3035 26.39 53.6977C29.864 57.2794 34.4827 59.2522 39.3957 59.2522C44.3085 59.2522 48.9273 57.2796 52.4012 53.6977C55.8751 50.1159 57.7883 45.3536 57.7883 40.2881C57.7883 35.2226 55.8751 30.4604 52.4012 26.8785ZM27.8707 28.4059C30.9489 25.2321 35.0417 23.484 39.395 23.484C43.7482 23.484 47.841 25.2321 50.9191 28.4059C53.3487 30.9108 54.9159 34.0676 55.4688 37.4935L49.7595 43.25C49.2188 42.9354 48.5954 42.7551 47.9316 42.7551C46.6392 42.7551 45.4985 43.436 44.8284 44.4679L36.4369 41.753L36.4373 41.7379L36.4378 41.7222V41.7222V41.7222C36.4383 41.7074 36.4387 41.6927 36.4387 41.6779C36.4387 39.5558 34.7644 37.8292 32.7061 37.8292C30.6479 37.8292 28.9734 39.5558 28.9734 41.6779C28.9734 42.3715 29.1532 43.0225 29.4661 43.5853L25.0632 48.2911C21.7224 41.9219 22.6573 33.7812 27.8707 28.4059ZM47.9317 48.2923C48.8348 48.2923 49.5696 47.5346 49.5696 46.6035C49.5696 45.6722 48.8348 44.9147 47.9317 44.9147C47.0286 44.9147 46.2938 45.6724 46.2938 46.6035C46.2938 47.5346 47.0286 48.2923 47.9317 48.2923ZM34.3448 41.6775C34.3448 42.6087 33.6099 43.3664 32.7068 43.3664C31.8036 43.3664 31.0688 42.6087 31.0688 41.6775C31.0688 40.7464 31.8036 39.9887 32.7068 39.9887C33.6099 39.9889 34.3448 40.7464 34.3448 41.6775ZM39.3959 57.0925C43.7491 57.0925 47.8419 55.3445 50.9201 52.1706C53.9983 48.9968 55.6936 44.777 55.6938 40.2885L51.2255 44.7936C51.5056 45.3335 51.6652 45.9495 51.6652 46.6034C51.6652 48.7254 49.9906 50.452 47.9325 50.452C45.8742 50.452 44.1998 48.7254 44.1998 46.6034C44.1998 46.5927 44.2001 46.5821 44.2004 46.5715C44.2008 46.5571 44.2014 46.5426 44.2017 46.5282L35.8102 43.8134C35.1401 44.8452 33.9993 45.5262 32.707 45.5262C32.0819 45.5262 31.4925 45.3662 30.9743 45.0849L26.2144 50.1723C26.7082 50.8715 27.2602 51.5403 27.8716 52.1706C30.9498 55.3446 35.0427 57.0925 39.3959 57.0925Z" fill="#272727"/>
<path d="M30.5 29.3843L31.9025 31.112C35.2175 28.0266 39.8653 27.0753 44.0328 28.6296L44.7361 26.4678C39.8472 24.6442 34.3922 25.7618 30.5 29.3843Z" fill="#272727"/>
<path d="M47.0203 28.0532L45.9238 29.9148C46.4816 30.2661 47.017 30.669 47.5151 31.112L48.8897 29.4594C48.3049 28.9394 47.6759 28.4663 47.0203 28.0532Z" fill="#272727"/>
<path d="M42.5219 52.5351C40.1398 53.048 37.6918 52.8322 35.4416 51.9114L34.6543 53.919C36.3604 54.6172 38.1629 54.9701 39.9787 54.9701C40.9727 54.9701 41.9707 54.8642 42.9587 54.6515L42.5219 52.5351Z" fill="#272727"/>
<path fill-rule="evenodd" clip-rule="evenodd" d="M64.5452 59.3268L66.0734 57.7514L84.4795 76.6599L74.6617 86.7809L56.2558 67.8724L57.8362 66.2432L54.0358 62.0554C49.7298 65.0743 44.7195 66.5857 39.7086 66.5857C33.181 66.5857 26.6533 64.0242 21.6838 58.9013C21.1141 58.3138 20.5785 57.7046 20.0741 57.0773L18.5258 58.7319C18.8403 59.2973 19.021 59.9512 19.021 60.6482C19.021 62.7803 17.3385 64.5149 15.2703 64.5149C13.202 64.5149 11.5195 62.7803 11.5195 60.6482C11.5195 58.5162 13.202 56.7816 15.2701 56.7817C15.8983 56.7817 16.4905 56.9424 17.0112 57.2251L18.7833 55.3313C11.8637 45.0906 12.8302 30.8649 21.6839 21.7376C31.6229 11.4917 47.7943 11.4915 57.7334 21.7376C60.1363 24.2147 61.9564 27.0681 63.1974 30.1149L65.5028 27.7909C65.2007 27.2339 65.0277 26.5928 65.0277 25.9105C65.0277 23.7785 66.7104 22.0439 68.7785 22.0439C69.4701 22.0439 70.1182 22.2388 70.6751 22.5768L77.0474 16.153H73.8643V13.9831H80.6815V21.0111H78.5766V17.6464L72.1191 24.1562C72.3806 24.6833 72.5291 25.2793 72.5291 25.9107C72.5291 28.0427 70.8464 29.7774 68.7783 29.7774C68.1358 29.7774 67.5307 29.6099 67.0016 29.3152L63.9936 32.3477C66.3215 39.9273 65.2412 48.3869 60.7539 55.149L64.5452 59.3268ZM70.4242 25.9107C70.4242 24.9752 69.6858 24.214 68.7784 24.214C67.8708 24.214 67.1325 24.9752 67.1325 25.9107C67.1325 26.8462 67.8708 27.6075 68.7784 27.6075C69.6858 27.6075 70.4242 26.8462 70.4242 25.9107ZM15.2715 62.3449C14.3641 62.3449 13.6256 61.5836 13.6256 60.6481C13.6256 59.7127 14.3641 58.9514 15.2715 58.9514C16.1791 58.9514 16.9174 59.7127 16.9174 60.6481C16.9172 61.5838 16.1789 62.3449 15.2715 62.3449ZM23.1717 23.272C14.0536 32.6722 14.0536 47.967 23.1717 57.367C32.2896 66.7668 47.1266 66.7668 56.2444 57.367C65.3626 47.9669 65.3626 32.6719 56.2444 23.272C51.6854 18.5722 45.6967 16.2222 39.708 16.2222C33.7193 16.2222 27.7307 18.5719 23.1717 23.272ZM55.7381 60.7537C56.4271 60.1786 57.0939 59.5616 57.7346 58.9013C58.3536 58.2631 58.9338 57.6 59.4756 56.9153L63.0574 60.8618L59.3266 64.7079L55.7381 60.7537ZM59.235 67.8697L74.6589 83.7149L81.4998 76.6625L66.0759 60.8174L59.235 67.8697Z" fill="#272727"/>
<path d="M66.071 64.1464L63.125 67.2919L64.581 68.8465L66.071 67.2553L71.7532 73.3226L73.2089 71.7682L66.071 64.1464Z" fill="#272727"/>
<path d="M73.9043 75.1577L75.582 73.4274L77.2598 75.1577L75.582 76.888L73.9043 75.1577Z" fill="#272727"/>
<path d="M22.791 67.8168H25.1637V70.2638H22.791V67.8168Z" fill="#272727"/>
<path d="M22.791 80.6635H25.1637V83.1104H22.791V80.6635Z" fill="#272727"/>
<path d="M39.9922 72.099H42.3649V74.546H39.9922V72.099Z" fill="#272727"/>
<path d="M70.2422 52.5231H72.6149V54.97H70.2422V52.5231Z" fill="#272727"/>
<path d="M72.6172 34.1707H74.9899V36.6176H72.6172V34.1707Z" fill="#272727"/>
<path d="M79.7344 43.9586H82.1071V46.4056H79.7344V43.9586Z" fill="#272727"/>
</svg>
