<svg width="96" height="96" viewBox="0 0 96 96" fill="none" xmlns="http://www.w3.org/2000/svg">
<path d="M54.2702 23.04C53.4638 23.04 52.8008 23.7084 52.8008 24.5213C52.8008 25.3342 53.4638 25.9846 54.2702 25.9846C55.5425 25.9846 56.5819 27.0142 56.5819 28.2787C56.5819 29.0917 57.2449 29.76 58.0513 29.76C58.8577 29.76 59.5208 29.0917 59.5208 28.2787C59.5208 25.3884 57.1733 23.04 54.2702 23.04Z" fill="#272727"/>
<path d="M56.1314 34.5601C55.325 34.5601 54.662 35.2267 54.662 36.0374C54.662 37.2985 53.6226 38.3254 52.3503 38.3254C51.5439 38.3254 50.8809 38.992 50.8809 39.8027C50.8809 40.6135 51.5439 41.2801 52.3503 41.2801C55.2354 41.2801 57.6009 38.938 57.6009 36.0374C57.6009 35.2267 56.9378 34.5601 56.1314 34.5601Z" fill="#272727"/>
<path d="M40.772 23.04C37.8869 23.04 35.5215 25.3883 35.5215 28.2785C35.5215 29.0913 36.1845 29.7597 36.9909 29.7597C37.7973 29.7777 38.4604 29.1094 38.4604 28.2965C38.4604 27.0321 39.4997 26.0025 40.772 26.0025C41.5784 26.0025 42.2415 25.3341 42.2415 24.5213C42.2415 23.7084 41.5784 23.04 40.772 23.04Z" fill="#272727"/>
<path d="M42.692 38.3254C41.4196 38.3254 40.3803 37.2985 40.3803 36.0374C40.3803 35.2267 39.7172 34.5601 38.9108 34.5601C38.1044 34.5601 37.4414 35.2267 37.4414 36.0374C37.4414 38.92 39.7889 41.2801 42.692 41.2801C43.4984 41.2801 44.1614 40.6135 44.1614 39.8027C44.1614 38.992 43.4984 38.3254 42.692 38.3254Z" fill="#272727"/>
<path fill-rule="evenodd" clip-rule="evenodd" d="M68.779 42.1136L69.1359 43.1649C69.7607 45.3219 70.082 47.5332 70.082 49.7083C70.082 57.0673 66.7263 63.8463 60.8896 68.2871C57.2483 71.0604 55.6954 73.7792 55.6954 77.4044V79.217H55.7133V83.6759H58.7477V86.6485H55.6062C54.9458 90.8537 51.3759 94.08 47.0564 94.08C42.7368 94.08 39.1491 90.8537 38.5065 86.6485H35.3472V83.6759H38.3995V79.217V77.7306V77.4044C38.3995 73.7974 36.8109 71.006 33.2767 68.3415C27.2436 63.8101 23.7809 56.5598 24.0129 48.9651C24.0665 47.0438 24.3878 45.1044 24.9589 43.1649L25.2802 42.1136H29.7247C29.4391 41.298 29.2785 40.4279 29.2785 39.5398C29.2785 38.6335 29.4391 37.7453 29.7604 36.8753C28.618 35.4977 28.0112 33.7939 28.0112 31.9813C28.0112 29.7881 28.9393 27.7037 30.5458 26.2355C30.5279 26.0361 30.5279 25.8548 30.5279 25.6736V25.6736C30.5279 21.3778 33.9907 17.8795 38.2567 17.8795H41.3624C42.8261 16.2663 44.843 15.36 47.0207 15.36C49.1804 15.36 51.2152 16.2663 52.6789 17.8795H55.7847C60.0507 17.8795 63.5134 21.3778 63.5134 25.6736C63.5134 25.8548 63.5134 26.0542 63.4956 26.2355C65.102 27.7037 66.0302 29.7881 66.0302 31.9813C66.0302 33.7939 65.4054 35.4977 64.2809 36.8753C64.6022 37.7453 64.7629 38.6335 64.7629 39.5398C64.7629 40.4098 64.6022 41.2798 64.3166 42.1136H68.779ZM50.8221 20.2721C50.2152 19.4564 49.3763 18.8945 48.4838 18.6045V42.1136H61.1033C61.5852 41.3523 61.853 40.4641 61.853 39.5397C61.853 38.7784 61.6566 38.0172 61.2639 37.2921L60.7284 36.2771L61.5674 35.4977C62.5491 34.5733 63.1024 33.3226 63.1024 31.9813C63.1024 30.4225 62.3706 29.0087 61.0854 28.0843L60.3179 27.5224L60.4964 26.5798C60.55 26.2536 60.5857 25.9636 60.5857 25.6735C60.5857 23.0091 58.4259 20.8521 55.7842 20.8521H51.2683L50.8221 20.2721ZM32.9189 28.0843L33.6864 27.5405L33.508 26.598C33.4366 26.2717 33.4187 25.9636 33.4187 25.6917C33.4187 23.0454 35.5785 20.8703 38.2202 20.8703H42.736L43.1823 20.2902C43.7891 19.4746 44.6281 18.9127 45.5384 18.6227V42.1317H32.9189C32.437 41.3342 32.1693 40.4642 32.1693 39.5398C32.1693 38.7785 32.3656 38.0172 32.7583 37.2922L33.2938 36.2771L32.4548 35.4977C31.4553 34.5733 30.902 33.3226 30.902 31.9813C30.902 30.4225 31.6338 29.0087 32.9189 28.0843ZM41.4526 86.6485C42.0595 89.2042 44.3085 91.1074 47.0037 91.1074C49.699 91.1074 51.9658 89.2042 52.5727 86.6485H41.4526ZM52.7497 83.6759H41.2726V79.2169H52.7497V83.6759ZM52.7684 76.2624C53.0897 72.2566 55.1245 68.9396 59.0871 65.9308C64.192 62.0519 67.1014 56.1429 67.155 49.7264C67.155 48.1857 66.9586 46.6269 66.6016 45.0862H62.5141H31.5635H27.476C27.1547 46.4275 26.9583 47.7688 26.9226 49.0739C26.7084 55.7079 29.725 62.0156 34.9905 65.9851C38.9174 68.9396 40.9165 72.2385 41.2378 76.2624H45.5395V59.9312H39.6849V56.9585H45.5395H48.4667H54.2142V59.9312H48.4667V76.2624H52.7684Z" fill="#272727"/>
<path d="M46.082 1.92004H48.962V7.68004H46.082V1.92004Z" fill="#272727"/>
<path d="M22.3867 8.58154L24.4233 6.54522L28.496 10.6184L26.4594 12.6548L22.3867 8.58154Z" fill="#272727"/>
<path d="M13.4414 29.76H19.2014V32.64H13.4414V29.76Z" fill="#272727"/>
<path d="M75.8418 29.76H81.6018V32.64H75.8418V29.76Z" fill="#272727"/>
<path d="M66.0664 11.0983L70.1393 7.02533L72.1758 9.0618L68.1029 13.1347L66.0664 11.0983Z" fill="#272727"/>
</svg>
