<svg width="96" height="96" viewBox="0 0 96 96" fill="none" xmlns="http://www.w3.org/2000/svg">
<path d="M54.7072 86.7628C52.5804 87.1298 50.4092 87.3161 48.2531 87.3161C27.18 87.3161 10.0365 69.9225 10.0365 48.5429C10.0365 46.1137 10.2574 43.6912 10.6934 41.3431C10.8369 40.5702 10.7103 39.7706 10.3356 39.082C8.59016 35.8758 7.66745 32.2393 7.66745 28.5668C7.667 16.5444 17.3079 6.76425 29.1583 6.76425C30.9993 6.76425 32.4918 5.24996 32.4918 3.38212C32.4918 1.51429 30.9993 0 29.1583 0C13.6318 0 1 12.8146 1 28.5663C1 32.9707 2.01294 37.3364 3.93882 41.2678C3.56057 43.656 3.36945 46.097 3.36945 48.5425C3.36945 73.6518 23.5042 94.0799 48.2531 94.0799C50.7825 94.0799 53.3298 93.8616 55.8246 93.4314C57.6398 93.118 58.8607 91.3715 58.5522 89.5302C58.2433 87.6886 56.5228 86.4498 54.7072 86.7628Z" fill="#272727"/>
<path d="M92.9178 56.8348C93.3783 54.2078 93.6115 51.5375 93.6115 48.8815C93.6115 24.0458 73.6476 3.84009 49.1089 3.84009C46.7983 3.84009 44.4727 4.02206 42.1969 4.3811C40.3931 4.66566 39.1591 6.37611 39.4403 8.20164C39.7215 10.0272 41.412 11.2764 43.2154 10.9914C45.1549 10.6855 47.1381 10.5303 49.1089 10.5303C70.0026 10.5303 87.0009 27.7347 87.0009 48.8815C87.0009 51.4527 86.7444 54.0405 86.2389 56.573C86.0992 57.2736 86.1847 58.0015 86.4831 58.6491C87.8017 61.5103 88.4698 64.5713 88.4698 67.7469C88.4698 79.6367 78.9114 89.3098 67.1623 89.3098C65.3369 89.3098 63.857 90.8075 63.857 92.6549C63.857 94.5023 65.3369 96 67.1623 96C82.5564 96 95.0803 83.3256 95.0803 67.7469C95.0803 63.9589 94.3536 60.2936 92.9178 56.8348Z" fill="#272727"/>
<path d="M66.2807 54.8492C66.2807 52.8849 65.8863 51.2036 65.1104 49.8532C64.3346 48.5019 63.2388 47.3688 61.8521 46.481C60.4637 45.6015 58.7588 44.8388 56.7836 44.2222C54.8291 43.6073 52.5891 43.0329 50.129 42.5137C48.1807 42.0735 46.7573 41.7329 45.9066 41.4999C45.0524 41.2691 44.204 40.9487 43.3825 40.5436C42.5538 40.1368 41.8931 39.6444 41.4163 39.0774C40.9376 38.5012 40.7037 37.8359 40.7037 37.0472C40.7037 35.7737 41.3889 34.7129 42.8007 33.8058C44.1905 32.9136 46.0465 32.4616 48.3161 32.4616C50.7986 32.4616 52.5501 32.8658 53.6714 33.6992C54.7771 34.5251 55.7385 35.685 56.525 37.153C57.1507 38.2058 57.7029 38.9234 58.225 39.3745C58.8726 39.9349 59.8281 40.0547 60.5157 40.0547C61.6155 40.0547 62.5455 39.6742 63.2801 38.9256C64.0155 38.1751 64.3875 37.322 64.3875 36.3903C64.3875 35.3664 64.0877 34.3026 63.497 33.2283C62.9094 32.1566 61.9606 31.1143 60.6792 30.133C59.3988 29.1552 57.7678 28.3591 55.8294 27.7666C53.8879 27.1803 51.5569 26.8801 48.8996 26.8801C45.5692 26.8801 42.6331 27.3308 40.1748 28.223C37.7161 29.1117 35.8086 30.4046 34.5084 32.0644C33.2091 33.725 32.5489 35.6495 32.5489 37.7823C32.5489 40.0223 33.1733 41.923 34.4044 43.434C35.636 44.9428 37.3252 46.1496 39.4241 47.0234C41.5324 47.9011 44.1757 48.6757 47.279 49.3261C49.588 49.7983 51.4717 50.2556 52.8817 50.6848C54.2689 51.1066 55.4198 51.7293 56.3014 52.5355C57.1803 53.343 57.6267 54.4073 57.6267 55.6971C57.6267 57.3511 56.8226 58.6892 55.1711 59.7952C53.5433 60.8809 51.396 61.4317 48.7938 61.4317C46.9012 61.4317 45.3495 61.1583 44.1865 60.6189C43.0244 60.0804 42.1083 59.3844 41.4647 58.5519C40.8256 57.7233 40.221 56.6762 39.6657 55.4324C39.2143 54.3928 38.6599 53.5945 38.0208 53.0643C37.3817 52.5346 36.5884 52.2647 35.662 52.2647C34.5053 52.2647 33.5793 52.6005 32.8335 53.2895C32.0954 53.9666 31.7207 54.7935 31.7207 55.7475C31.7207 57.3898 32.3441 59.1018 33.5722 60.8388C34.8051 62.5784 36.428 63.9872 38.3969 65.0277C41.1752 66.4702 44.7454 67.2001 49.0161 67.2001C52.5752 67.2001 55.6995 66.6647 58.3025 65.607C60.9011 64.5485 62.9018 63.0651 64.2495 61.1973C65.5963 59.3304 66.2807 57.1949 66.2807 54.8492Z" fill="#272727"/>
</svg>
