<svg width="20" height="20" viewBox="0 0 20 20" fill="none" xmlns="http://www.w3.org/2000/svg">
<path d="M13.5451 6.45503C12.6456 5.55556 11.3757 4.97355 10.0001 4.97355C8.62443 4.97355 7.35459 5.5291 6.45511 6.45503C5.55564 7.3545 4.97363 8.62434 4.97363 10C4.97363 11.3757 5.55564 12.6455 6.45511 13.545C7.35459 14.4444 8.62443 15.0265 10.0001 15.0265C11.3757 15.0265 12.6456 14.4709 13.5451 13.545C14.4445 12.6455 15.0265 11.3757 15.0265 10C15.0265 8.62434 14.471 7.3545 13.5451 6.45503ZM12.5927 12.5926C11.9313 13.254 11.0054 13.6508 10.0001 13.6508C8.9948 13.6508 8.06887 13.254 7.4075 12.5926C6.74612 11.9312 6.34929 11.0053 6.34929 10C6.34929 8.99471 6.74612 8.06878 7.4075 7.40741C8.06887 6.74603 8.9948 6.34921 10.0001 6.34921C11.0054 6.34921 11.9313 6.74603 12.5927 7.40741C13.2541 8.06878 13.6509 8.99471 13.6509 10C13.6509 11.0053 13.2541 11.9312 12.5927 12.5926Z" fill="#272727"/>
<path d="M19.312 9.31217H17.275C16.9046 9.31217 16.5872 9.62963 16.5872 10C16.5872 10.3704 16.9046 10.6878 17.275 10.6878H19.312C19.6824 10.6878 19.9999 10.3704 19.9999 10C19.9999 9.62963 19.6824 9.31217 19.312 9.31217Z" fill="#272727"/>
<path d="M9.99984 16.5873C9.62947 16.5873 9.31201 16.9047 9.31201 17.2751V19.3122C9.31201 19.6825 9.62947 20 9.99984 20C10.3702 20 10.6877 19.6825 10.6877 19.3122V17.2751C10.6877 16.9047 10.3702 16.5873 9.99984 16.5873Z" fill="#272727"/>
<path d="M17.0633 16.1111L15.6083 14.6561C15.3702 14.3915 14.9205 14.3915 14.6559 14.6561C14.3914 14.9206 14.3914 15.3439 14.6559 15.6085L16.111 17.0635C16.3755 17.328 16.7988 17.328 17.0633 17.0635C17.3279 16.7989 17.3279 16.3757 17.0633 16.1111Z" fill="#272727"/>
<path d="M9.99984 0C9.62947 0 9.31201 0.31746 9.31201 0.68783V2.72486C9.31201 3.09523 9.62947 3.41269 9.99984 3.41269C10.3702 3.41269 10.6877 3.09523 10.6877 2.72486V0.68783C10.6877 0.31746 10.3702 0 9.99984 0Z" fill="#272727"/>
<path d="M17.0899 2.9365C16.8254 2.67195 16.4021 2.67195 16.1376 2.9365L14.6825 4.39153C14.418 4.65608 14.418 5.07936 14.6825 5.34391C14.9206 5.60846 15.3704 5.60846 15.6349 5.34391L17.0899 3.88889C17.3545 3.62433 17.3545 3.20105 17.0899 2.9365Z" fill="#272727"/>
<path d="M2.72486 9.31217H0.68783C0.31746 9.31217 0 9.62963 0 10C0 10.3704 0.291005 10.6878 0.68783 10.6878H2.72486C3.09523 10.6878 3.41269 10.3704 3.41269 10C3.41269 9.62963 3.09523 9.31217 2.72486 9.31217Z" fill="#272727"/>
<path d="M5.31749 14.6561C5.07939 14.3915 4.62966 14.3915 4.36511 14.6561L2.91008 16.1111C2.64553 16.3757 2.64553 16.7989 2.91008 17.0635C3.17463 17.328 3.59791 17.328 3.86246 17.0635L5.31749 15.6085C5.58204 15.3439 5.58204 14.9206 5.31749 14.6561Z" fill="#272727"/>
<path d="M5.31749 4.39153L3.86246 2.9365C3.59791 2.67195 3.17463 2.67195 2.91008 2.9365C2.64553 3.20105 2.64553 3.62433 2.91008 3.88889L4.36511 5.34391C4.62966 5.60846 5.05294 5.60846 5.31749 5.34391C5.58204 5.07936 5.58204 4.65608 5.31749 4.39153Z" fill="#272727"/>
</svg>
