<svg xmlns="http://www.w3.org/2000/svg" viewBox="0 0 64 64" width="64" height="64">
  <rect width="64" height="64" rx="14" fill="#0a0a0a"/>
  <path d="M23.54 44L17.09 44L7.88 18.44L13.53 18.44L20.33 37.84L27.14 18.44L32.79 18.44L23.54 44ZM45.82 44L34.66 44L34.66 18.44L44.60 18.44Q49.35 18.44 51.87 20.11Q54.39 21.79 54.39 25.39L54.39 25.39Q54.39 27.69 53.02 29.11Q51.66 30.54 49.10 30.79L49.10 30.79Q52.20 31.04 53.83 32.66Q55.47 34.28 55.47 36.94L55.47 36.94Q55.47 40.51 52.97 42.25Q50.47 44 45.82 44L45.82 44ZM40.14 22.90L40.14 29.02L44.46 29.02Q46.47 29.02 47.68 28.25Q48.88 27.48 48.88 25.96L48.88 25.96Q48.88 24.38 47.71 23.64Q46.54 22.90 44.46 22.90L44.46 22.90L40.14 22.90ZM40.14 32.98L40.14 39.54L45.57 39.54Q47.52 39.54 48.74 38.74Q49.96 37.95 49.96 36.30L49.96 36.30Q49.96 34.68 48.76 33.83Q47.55 32.98 45.57 32.98L45.57 32.98L40.14 32.98Z" fill="#ffffff"/>
</svg>
