<svg width="250" height="38" viewBox="0 0 250 38" fill="none" xmlns="http://www.w3.org/2000/svg">
<path id="logo-vit-bokisch" fill-rule="evenodd" clip-rule="evenodd" d="M30.528 3.984C29.312 7.50402 28.152 10.76 27.048 13.752C25.944 16.744 24.864 19.584 23.808 22.272C22.752 24.96 21.704 27.528 20.664 29.976C19.624 32.424 18.56 34.848 17.472 37.248H13.104C12.016 34.848 10.952 32.424 9.912 29.976C8.87199 27.528 7.81601 24.96 6.744 22.272C5.67199 19.584 4.57601 16.744 3.456 13.752C2.33599 10.76 1.18401 7.50402 0 3.984H5.136C6.86401 9.04003 8.55999 13.904 10.224 18.576C11.888 23.248 13.6 27.632 15.36 31.728C17.12 27.664 18.832 23.288 20.496 18.6C22.16 13.912 23.84 9.04003 25.536 3.984H30.528ZM39.2828 37.248H34.8188V12.288H39.2828V37.248ZM37.0269 7.776C36.2268 7.776 35.5469 7.512 34.9869 6.984C34.4268 6.456 34.1469 5.744 34.1469 4.848C34.1469 3.95199 34.4268 3.24 34.9869 2.712C35.5469 2.184 36.2268 1.92 37.0269 1.92C37.8269 1.92 38.5068 2.184 39.0668 2.712C39.6269 3.24 39.9069 3.95199 39.9069 4.848C39.9069 5.744 39.6269 6.456 39.0668 6.984C38.5068 7.512 37.8269 7.776 37.0269 7.776ZM51.1097 12.288H60.5657V16.032H51.1097V27.552C51.1097 28.8 51.2057 29.832 51.3977 30.648C51.5897 31.464 51.8777 32.104 52.2617 32.568C52.6457 33.032 53.1257 33.36 53.7017 33.552C54.2777 33.744 54.9497 33.84 55.7177 33.84C57.0617 33.84 58.1417 33.688 58.9577 33.384C59.7737 33.08 60.3417 32.864 60.6617 32.736L61.5257 36.432C61.0777 36.656 60.2937 36.936 59.1737 37.272C58.0537 37.608 56.7737 37.776 55.3337 37.776C53.6377 37.776 52.2377 37.56 51.1337 37.128C50.0297 36.696 49.1417 36.048 48.4697 35.184C47.7977 34.32 47.3257 33.256 47.0537 31.992C46.7817 30.728 46.6457 29.264 46.6457 27.6V5.328L51.1097 4.56V12.288ZM88.7793 37.68C86.9553 37.68 85.1394 37.624 83.3313 37.512C81.5233 37.4 79.6434 37.136 77.6913 36.72V4.464C79.2274 4.176 80.9073 3.96 82.7313 3.816C84.5554 3.672 86.2513 3.6 87.8193 3.6C89.9314 3.6 91.8753 3.752 93.6513 4.056C95.4274 4.36 96.9553 4.87999 98.2353 5.616C99.5154 6.352 100.515 7.31999 101.235 8.52C101.955 9.72001 102.315 11.2 102.315 12.96C102.315 15.616 101.035 17.712 98.4753 19.248C100.587 20.048 102.027 21.136 102.795 22.512C103.563 23.888 103.947 25.44 103.947 27.168C103.947 30.656 102.675 33.28 100.131 35.04C97.5873 36.8 93.8034 37.68 88.7793 37.68ZM84.9874 22.752V31.344C85.5314 31.408 86.1234 31.456 86.7634 31.488C87.4034 31.52 88.1074 31.536 88.8754 31.536C91.1154 31.536 92.9234 31.216 94.2994 30.576C95.6754 29.936 96.3634 28.752 96.3634 27.024C96.3634 25.488 95.7874 24.392 94.6354 23.736C93.4834 23.08 91.8354 22.752 89.6914 22.752H84.9874ZM84.9874 17.04H88.6354C90.9394 17.04 92.5874 16.744 93.5794 16.152C94.5714 15.56 95.0674 14.608 95.0674 13.296C95.0674 11.952 94.5554 11.008 93.5314 10.464C92.5074 9.92 91.0034 9.648 89.0194 9.648C88.3794 9.648 87.6914 9.656 86.9554 9.672C86.2194 9.688 85.5634 9.728 84.9874 9.792V17.04ZM133.054 24.576C133.054 26.56 132.766 28.376 132.19 30.024C131.614 31.672 130.782 33.08 129.694 34.248C128.606 35.416 127.302 36.32 125.782 36.96C124.262 37.6 122.558 37.92 120.67 37.92C118.814 37.92 117.126 37.6 115.606 36.96C114.086 36.32 112.782 35.416 111.694 34.248C110.606 33.08 109.758 31.672 109.15 30.024C108.542 28.376 108.238 26.56 108.238 24.576C108.238 22.592 108.55 20.784 109.174 19.152C109.798 17.52 110.662 16.128 111.766 14.976C112.87 13.824 114.182 12.928 115.702 12.288C117.222 11.648 118.878 11.328 120.67 11.328C122.494 11.328 124.166 11.648 125.686 12.288C127.206 12.928 128.51 13.824 129.598 14.976C130.686 16.128 131.534 17.52 132.142 19.152C132.75 20.784 133.054 22.592 133.054 24.576ZM125.758 24.576C125.758 22.368 125.318 20.632 124.438 19.368C123.558 18.104 122.302 17.472 120.67 17.472C119.038 17.472 117.774 18.104 116.878 19.368C115.982 20.632 115.534 22.368 115.534 24.576C115.534 26.784 115.982 28.536 116.878 29.832C117.774 31.128 119.038 31.776 120.67 31.776C122.302 31.776 123.558 31.128 124.438 29.832C125.318 28.536 125.758 26.784 125.758 24.576ZM145.697 21.12C146.401 20.352 147.129 19.552 147.881 18.72C148.633 17.888 149.361 17.064 150.065 16.248C150.769 15.432 151.433 14.656 152.057 13.92C152.681 13.184 153.217 12.544 153.665 12H162.161C160.465 13.952 158.809 15.816 157.193 17.592C155.577 19.368 153.809 21.2 151.889 23.088C152.849 23.952 153.841 24.984 154.865 26.184C155.889 27.384 156.881 28.624 157.841 29.904C158.801 31.184 159.681 32.464 160.481 33.744C161.281 35.024 161.953 36.192 162.497 37.248H154.289C153.777 36.416 153.193 35.496 152.537 34.488C151.881 33.48 151.185 32.472 150.449 31.464C149.713 30.456 148.937 29.488 148.121 28.56C147.305 27.632 146.497 26.848 145.697 26.208V37.248H138.545V1.152L145.697 0V21.12ZM173.46 37.248H166.308V12H173.46V37.248ZM174.132 4.704C174.132 6.01601 173.708 7.048 172.86 7.8C172.012 8.55201 171.012 8.928 169.86 8.928C168.708 8.928 167.708 8.55201 166.86 7.8C166.012 7.048 165.588 6.01601 165.588 4.704C165.588 3.392 166.012 2.36001 166.86 1.608C167.708 0.856 168.708 0.480003 169.86 0.480003C171.012 0.480003 172.012 0.856 172.86 1.608C173.708 2.36001 174.132 3.392 174.132 4.704ZM187.399 32.112C188.711 32.112 189.639 31.984 190.183 31.728C190.727 31.472 190.999 30.976 190.999 30.24C190.999 29.664 190.647 29.16 189.943 28.728C189.239 28.296 188.167 27.808 186.727 27.264C185.607 26.848 184.591 26.416 183.679 25.968C182.767 25.52 181.991 24.984 181.351 24.36C180.711 23.736 180.215 22.992 179.863 22.128C179.511 21.264 179.335 20.224 179.335 19.008C179.335 16.64 180.215 14.768 181.975 13.392C183.735 12.016 186.151 11.328 189.223 11.328C190.759 11.328 192.231 11.464 193.639 11.736C195.047 12.008 196.167 12.304 196.999 12.624L195.751 18.192C194.919 17.904 194.015 17.648 193.039 17.424C192.063 17.2 190.967 17.088 189.751 17.088C187.511 17.088 186.391 17.712 186.391 18.96C186.391 19.248 186.439 19.504 186.535 19.728C186.631 19.952 186.823 20.168 187.111 20.376C187.399 20.584 187.791 20.808 188.287 21.048C188.783 21.288 189.415 21.552 190.183 21.84C191.751 22.416 193.047 22.984 194.071 23.544C195.095 24.104 195.903 24.712 196.495 25.368C197.087 26.024 197.503 26.752 197.743 27.552C197.983 28.352 198.103 29.28 198.103 30.336C198.103 32.832 197.167 34.72 195.295 36C193.423 37.28 190.775 37.92 187.351 37.92C185.111 37.92 183.247 37.728 181.759 37.344C180.271 36.96 179.239 36.64 178.663 36.384L179.863 30.576C181.079 31.056 182.327 31.432 183.607 31.704C184.887 31.976 186.151 32.112 187.399 32.112ZM202.202 24.624C202.202 22.8 202.497 21.08 203.09 19.464C203.682 17.848 204.538 16.44 205.658 15.24C206.778 14.04 208.137 13.088 209.738 12.384C211.338 11.68 213.161 11.328 215.21 11.328C216.554 11.328 217.786 11.448 218.906 11.688C220.026 11.928 221.113 12.272 222.17 12.72L220.682 18.432C220.01 18.176 219.274 17.952 218.474 17.76C217.674 17.568 216.778 17.472 215.786 17.472C213.673 17.472 212.098 18.128 211.058 19.44C210.018 20.752 209.498 22.48 209.498 24.624C209.498 26.896 209.986 28.656 210.962 29.904C211.938 31.152 213.641 31.776 216.074 31.776C216.938 31.776 217.866 31.696 218.858 31.536C219.85 31.376 220.762 31.12 221.594 30.768L222.602 36.624C221.77 36.976 220.73 37.28 219.482 37.536C218.234 37.792 216.858 37.92 215.354 37.92C213.049 37.92 211.066 37.576 209.402 36.888C207.738 36.2 206.37 35.264 205.298 34.08C204.225 32.896 203.442 31.496 202.946 29.88C202.45 28.264 202.202 26.512 202.202 24.624ZM227.372 37.248V1.152L234.524 0V12.096C235.004 11.936 235.62 11.784 236.372 11.64C237.124 11.496 237.852 11.424 238.556 11.424C240.604 11.424 242.308 11.704 243.668 12.264C245.028 12.824 246.116 13.616 246.932 14.64C247.748 15.664 248.324 16.88 248.66 18.288C248.996 19.696 249.164 21.264 249.164 22.992V37.248H242.012V23.856C242.012 21.552 241.716 19.92 241.124 18.96C240.532 18 239.436 17.52 237.836 17.52C237.196 17.52 236.596 17.576 236.036 17.688C235.476 17.8 234.972 17.92 234.524 18.048V37.248H227.372Z" fill="white"/>
</svg>
