<svg width="16" height="16" viewBox="0 0 16 16" fill="none" xmlns="http://www.w3.org/2000/svg">
<g clip-path="url(#clip0)">
<rect width="16" height="16" fill="#FBFBFB"/>
<path fill-rule="evenodd" clip-rule="evenodd" d="M10.9896 2.13831C10.5518 3.40546 10.1343 4.57755 9.73685 5.65463C9.33942 6.73171 8.95064 7.75405 8.5705 8.72169C8.19035 9.68933 7.81309 10.6138 7.43871 11.495C7.06432 12.3763 6.6813 13.2488 6.28964 14.1128H4.71723C4.32557 13.2488 3.94255 12.3763 3.56816 11.495C3.19378 10.6138 2.81364 9.68933 2.42773 8.72169C2.04183 7.75405 1.64729 6.73171 1.2441 5.65463C0.840921 4.57755 0.426223 3.40546 0 2.13831H1.84888C2.47093 3.95839 3.08146 5.70934 3.68048 7.39119C4.27949 9.07304 4.89578 10.6512 5.52935 12.1257C6.16293 10.6627 6.77922 9.08744 7.37823 7.39983C7.97725 5.71222 8.58201 3.95839 9.19255 2.13831H10.9896ZM10.5599 14.2683C9.90325 14.2683 9.24952 14.2481 8.59867 14.2078C7.94781 14.1675 7.27105 14.0724 6.56836 13.9227V2.31103C7.1213 2.20735 7.72606 2.12959 8.38268 2.07776C9.03929 2.02592 9.64982 2 10.2143 2C10.9746 2 11.6744 2.05472 12.3137 2.16415C12.953 2.27359 13.5031 2.46078 13.9639 2.72573C14.4247 2.99068 14.7846 3.33914 15.0438 3.77112C15.303 4.2031 15.4326 4.73587 15.4326 5.36945C15.4326 6.32557 14.9718 7.08009 14.0503 7.63303C14.8106 7.92102 15.3289 8.31268 15.6054 8.80802C15.8819 9.30336 16.0201 9.86205 16.0201 10.4841C16.0201 11.7397 15.5622 12.6843 14.6464 13.3179C13.7306 13.9515 12.3684 14.2683 10.5599 14.2683ZM9.19482 8.89441V11.9874C9.39066 12.0104 9.60376 12.0277 9.83416 12.0392C10.0645 12.0507 10.318 12.0565 10.5944 12.0565C11.4008 12.0565 12.0517 11.9413 12.547 11.7109C13.0423 11.4805 13.29 11.0543 13.29 10.4323C13.29 9.87932 13.0827 9.48478 12.6679 9.24863C12.2532 9.01248 11.66 8.89441 10.8882 8.89441H9.19482ZM9.19482 6.83813H10.508C11.3375 6.83813 11.9307 6.73157 12.2878 6.51846C12.6449 6.30535 12.8235 5.96265 12.8235 5.49035C12.8235 5.00652 12.6392 4.6667 12.2705 4.47087C11.9019 4.27504 11.3605 4.17712 10.6463 4.17712C10.4159 4.17712 10.1682 4.18 9.90327 4.18576C9.63832 4.19152 9.40218 4.20592 9.19482 4.22896V6.83813Z" fill="#272727"/>
</g>
<defs>
<clipPath id="clip0">
<rect width="16" height="16" fill="white"/>
</clipPath>
</defs>
</svg>
